<svg class="double-logo-svg" width="29" height="16" viewBox="0 0 29 16" fill="none" xmlns="http://www.w3.org/2000/svg">
<path d="M0.762483 4.63574C0.342217 4.63574 0 4.98252 0 5.40839V10.0443C0 10.4702 0.342217 10.8169 0.762483 10.8169C1.18275 10.8169 1.52497 10.4702 1.52497 10.0443V5.40839C1.52497 4.98252 1.18275 4.63574 0.762483 4.63574Z" fill="#148948"/>
<path d="M3.71756 2.31787C3.29729 2.31787 2.95508 2.66465 2.95508 3.09052V12.3623C2.95508 12.7882 3.29729 13.135 3.71756 13.135C4.13783 13.135 4.48004 12.7882 4.48004 12.3623V3.09052C4.48004 2.66465 4.13783 2.31787 3.71756 2.31787Z" fill="#148948"/>
<path d="M6.67264 0C6.25237 0 5.91016 0.34678 5.91016 0.77265V14.6803C5.91016 15.1062 6.25237 15.453 6.67264 15.453C7.0929 15.453 7.43512 15.1062 7.43512 14.6803V0.77265C7.43512 0.34678 7.0929 0 6.67264 0Z" fill="#148948"/>
<path d="M9.62576 3.86328C9.2055 3.86328 8.86328 4.21006 8.86328 4.63593V10.8171C8.86328 11.243 9.2055 11.5898 9.62576 11.5898C10.046 11.5898 10.3882 11.243 10.3882 10.8171V4.63593C10.3882 4.21006 10.046 3.86328 9.62576 3.86328Z" fill="#148948"/>
<path d="M12.5808 6.18115C12.1606 6.18115 11.8184 6.52793 11.8184 6.9538V8.4991C11.8184 8.92497 12.1606 9.27175 12.5808 9.27175C13.0011 9.27175 13.3433 8.92497 13.3433 8.4991V6.9538C13.3433 6.52793 13.0011 6.18115 12.5808 6.18115Z" fill="#148948"/>
<path d="M15.7625 4.63574C15.3422 4.63574 15 4.98252 15 5.40839V10.0443C15 10.4702 15.3422 10.8169 15.7625 10.8169C16.1827 10.8169 16.525 10.4702 16.525 10.0443V5.40839C16.525 4.98252 16.1827 4.63574 15.7625 4.63574Z" fill="#148948"/>
<path d="M18.7176 2.31787C18.2973 2.31787 17.9551 2.66465 17.9551 3.09052V12.3623C17.9551 12.7882 18.2973 13.135 18.7176 13.135C19.1378 13.135 19.48 12.7882 19.48 12.3623V3.09052C19.48 2.66465 19.1378 2.31787 18.7176 2.31787Z" fill="#148948"/>
<path d="M21.6726 0C21.2524 0 20.9102 0.34678 20.9102 0.77265V14.6803C20.9102 15.1062 21.2524 15.453 21.6726 15.453C22.0929 15.453 22.4351 15.1062 22.4351 14.6803V0.77265C22.4351 0.34678 22.0929 0 21.6726 0Z" fill="#148948"/>
<path d="M24.6258 3.86328C24.2055 3.86328 23.8633 4.21006 23.8633 4.63593V10.8171C23.8633 11.243 24.2055 11.5898 24.6258 11.5898C25.046 11.5898 25.3882 11.243 25.3882 10.8171V4.63593C25.3882 4.21006 25.046 3.86328 24.6258 3.86328Z" fill="#148948"/>
<path d="M27.5808 6.18115C27.1606 6.18115 26.8184 6.52793 26.8184 6.9538V8.4991C26.8184 8.92497 27.1606 9.27175 27.5808 9.27175C28.0011 9.27175 28.3433 8.92497 28.3433 8.4991V6.9538C28.3433 6.52793 28.0011 6.18115 27.5808 6.18115Z" fill="#148948"/>
</svg>
