<svg xmlns="http://www.w3.org/2000/svg" width="105" height="133" fill="none" viewBox="0 0 105 133">
  <path fill="#3B9F63" d="M2.667 16.213C1.197 16.213 0 17.426 0 18.916v16.213c0 1.49 1.197 2.702 2.667 2.702 1.47 0 2.666-1.213 2.666-2.702V18.916c0-1.49-1.196-2.703-2.666-2.703ZM13 8.107c-1.47 0-2.667 1.213-2.667 2.702v32.427c0 1.49 1.197 2.702 2.667 2.702 1.47 0 2.666-1.213 2.666-2.702V10.81c0-1.49-1.197-2.702-2.666-2.702ZM23.334 0c-1.47 0-2.667 1.213-2.667 2.702v48.64c0 1.49 1.197 2.703 2.667 2.703 1.47 0 2.666-1.213 2.666-2.702V2.703C26 1.212 24.803 0 23.334 0ZM33.667 13.511c-1.47 0-2.667 1.213-2.667 2.703V37.83c0 1.49 1.197 2.703 2.667 2.703 1.47 0 2.666-1.213 2.666-2.703V16.213c0-1.489-1.197-2.702-2.666-2.702ZM44 21.618c-1.47 0-2.666 1.213-2.666 2.702v5.405c0 1.49 1.197 2.702 2.667 2.702 1.47 0 2.666-1.213 2.666-2.702V24.32c0-1.489-1.197-2.702-2.666-2.702ZM54.334 16.213c-1.47 0-2.667 1.213-2.667 2.703v16.213c0 1.49 1.197 2.702 2.667 2.702 1.47 0 2.666-1.213 2.666-2.702V18.916c0-1.49-1.197-2.703-2.666-2.703ZM97 21.617c-1.47 0-2.666 1.213-2.666 2.702v5.405c0 1.49 1.197 2.702 2.667 2.702 1.47 0 2.666-1.213 2.666-2.702v-5.405c0-1.489-1.197-2.702-2.666-2.702ZM86.333 13.511c-1.47 0-2.667 1.213-2.667 2.703V37.83c0 1.49 1.197 2.703 2.667 2.703 1.47 0 2.666-1.213 2.666-2.703V16.213c0-1.489-1.197-2.702-2.666-2.702ZM75.669 0c-1.47 0-2.667 1.213-2.667 2.702v48.64c0 1.49 1.197 2.703 2.667 2.703 1.47 0 2.666-1.213 2.666-2.702V2.703C78.335 1.212 77.138 0 75.67 0ZM64.999 8.106c-1.47 0-2.667 1.213-2.667 2.702v32.427c0 1.49 1.197 2.702 2.667 2.702 1.47 0 2.666-1.212 2.666-2.702V10.808c0-1.49-1.197-2.702-2.666-2.702ZM13.334 87.618c-1.47 0-2.667 1.213-2.667 2.702v5.405c0 1.49 1.197 2.702 2.667 2.702 1.47 0 2.666-1.213 2.666-2.702V90.32c0-1.489-1.197-2.702-2.666-2.702ZM2.666 79.511c-1.47 0-2.667 1.213-2.667 2.703v21.617c0 1.49 1.197 2.702 2.667 2.702 1.47 0 2.666-1.212 2.666-2.702V82.213c0-1.489-1.196-2.702-2.666-2.702ZM23.667 82.213c-1.47 0-2.667 1.213-2.667 2.703v16.213c0 1.49 1.197 2.702 2.667 2.702 1.47 0 2.666-1.212 2.666-2.702V84.916c0-1.49-1.196-2.703-2.666-2.703ZM34 74.107c-1.47 0-2.667 1.213-2.667 2.702v32.427c0 1.49 1.197 2.702 2.667 2.702 1.47 0 2.666-1.212 2.666-2.702V76.809c0-1.49-1.197-2.702-2.666-2.702ZM44.334 66c-1.47 0-2.667 1.213-2.667 2.702v48.641c0 1.489 1.197 2.702 2.667 2.702 1.47 0 2.666-1.213 2.666-2.702v-48.64C47 67.212 45.803 66 44.334 66ZM54.667 79.511c-1.47 0-2.667 1.213-2.667 2.703v21.617c0 1.49 1.197 2.703 2.667 2.703 1.47 0 2.666-1.213 2.666-2.703V82.213c0-1.489-1.197-2.702-2.666-2.702ZM65 87.618c-1.47 0-2.666 1.213-2.666 2.702v5.405c0 1.49 1.197 2.702 2.667 2.702 1.47 0 2.666-1.213 2.666-2.702V90.32c0-1.489-1.197-2.702-2.666-2.702ZM75.334 82.213c-1.47 0-2.667 1.213-2.667 2.703v16.213c0 1.49 1.197 2.702 2.667 2.702 1.47 0 2.666-1.212 2.666-2.702V84.916c0-1.49-1.197-2.703-2.666-2.703ZM96.669 66c-1.47 0-2.667 1.213-2.667 2.702v48.641c0 1.489 1.197 2.702 2.667 2.702 1.47 0 2.666-1.213 2.666-2.702v-48.64c0-1.49-1.197-2.703-2.666-2.703ZM85.999 74.106c-1.47 0-2.667 1.213-2.667 2.702v32.427c0 1.49 1.197 2.702 2.667 2.702 1.47 0 2.666-1.212 2.666-2.702V76.808c0-1.49-1.197-2.702-2.666-2.702Z"/>
</svg>