<svg width="105" height="133" viewBox="0 0 105 133" fill="none" xmlns="http://www.w3.org/2000/svg">
<path d="M2.66669 16.2134C1.19686 16.2134 0 17.4262 0 18.9156V35.1291C0 36.6185 1.19686 37.8313 2.66669 37.8313C4.13652 37.8313 5.33338 36.6185 5.33338 35.1291V18.9156C5.33338 17.4262 4.13652 16.2134 2.66669 16.2134Z" fill="#148948"/>
<path d="M12.9997 8.10693C11.5299 8.10693 10.333 9.31975 10.333 10.8092V43.2361C10.333 44.7255 11.5299 45.9383 12.9997 45.9383C14.4695 45.9383 15.6664 44.7255 15.6664 43.2361V10.8092C15.6664 9.31975 14.4695 8.10693 12.9997 8.10693Z" fill="#148948"/>
<path d="M23.3337 0C21.8639 0 20.667 1.21282 20.667 2.70224V51.3426C20.667 52.832 21.8639 54.0449 23.3337 54.0449C24.8035 54.0449 26.0004 52.832 26.0004 51.3426V2.70224C26.0004 1.21282 24.8035 0 23.3337 0Z" fill="#148948"/>
<path d="M33.6667 13.5112C32.1969 13.5112 31 14.724 31 16.2135V37.8314C31 39.3208 32.1969 40.5337 33.6667 40.5337C35.1365 40.5337 36.3334 39.3208 36.3334 37.8314V16.2135C36.3334 14.724 35.1365 13.5112 33.6667 13.5112Z" fill="#148948"/>
<path d="M44.0007 21.6182C42.5308 21.6182 41.334 22.831 41.334 24.3204V29.7249C41.334 31.2143 42.5308 32.4271 44.0007 32.4271C45.4705 32.4271 46.6674 31.2143 46.6674 29.7249V24.3204C46.6674 22.831 45.4705 21.6182 44.0007 21.6182Z" fill="#148948"/>
<path d="M54.3337 16.2134C52.8639 16.2134 51.667 17.4262 51.667 18.9156V35.1291C51.667 36.6185 52.8639 37.8313 54.3337 37.8313C55.8035 37.8313 57.0004 36.6185 57.0004 35.1291V18.9156C57.0004 17.4262 55.8035 16.2134 54.3337 16.2134Z" fill="#148948"/>
<path d="M97.0007 21.6172C95.5308 21.6172 94.334 22.83 94.334 24.3194V29.7239C94.334 31.2133 95.5308 32.4262 97.0007 32.4262C98.4705 32.4262 99.6674 31.2133 99.6674 29.7239V24.3194C99.6674 22.83 98.4705 21.6172 97.0007 21.6172Z" fill="#148948"/>
<path d="M86.3327 13.5112C84.8629 13.5112 83.666 14.724 83.666 16.2135V37.8314C83.666 39.3208 84.8629 40.5337 86.3327 40.5337C87.8025 40.5337 88.9994 39.3208 88.9994 37.8314V16.2135C88.9994 14.724 87.8025 13.5112 86.3327 13.5112Z" fill="#148948"/>
<path d="M75.6686 0C74.1988 0 73.002 1.21282 73.002 2.70224V51.3426C73.002 52.832 74.1988 54.0449 75.6686 54.0449C77.1385 54.0449 78.3353 52.832 78.3353 51.3426V2.70224C78.3353 1.21282 77.1385 0 75.6686 0Z" fill="#148948"/>
<path d="M64.9987 8.10596C63.5289 8.10596 62.332 9.31877 62.332 10.8082V43.2351C62.332 44.7245 63.5289 45.9374 64.9987 45.9374C66.4685 45.9374 67.6654 44.7245 67.6654 43.2351V10.8082C67.6654 9.31877 66.4685 8.10596 64.9987 8.10596Z" fill="#148948"/>
<path d="M23.6667 82.2134C22.1969 82.2134 21 83.4262 21 84.9156V101.129C21 102.619 22.1969 103.831 23.6667 103.831C25.1365 103.831 26.3334 102.619 26.3334 101.129V84.9156C26.3334 83.4262 25.1365 82.2134 23.6667 82.2134Z" fill="#148948"/>
<path d="M33.9997 74.1069C32.5299 74.1069 31.333 75.3198 31.333 76.8092V109.236C31.333 110.726 32.5299 111.938 33.9997 111.938C35.4695 111.938 36.6664 110.726 36.6664 109.236V76.8092C36.6664 75.3198 35.4695 74.1069 33.9997 74.1069Z" fill="#148948"/>
<path d="M44.3337 66C42.8639 66 41.667 67.2128 41.667 68.7022V117.343C41.667 118.832 42.8639 120.045 44.3337 120.045C45.8035 120.045 47.0004 118.832 47.0004 117.343V68.7022C47.0004 67.2128 45.8035 66 44.3337 66Z" fill="#148948"/>
<path d="M54.6667 79.5112C53.1969 79.5112 52 80.724 52 82.2135V103.831C52 105.321 53.1969 106.534 54.6667 106.534C56.1365 106.534 57.3334 105.321 57.3334 103.831V82.2135C57.3334 80.724 56.1365 79.5112 54.6667 79.5112Z" fill="#148948"/>
<path d="M65.0007 87.6182C63.5308 87.6182 62.334 88.831 62.334 90.3204V95.7249C62.334 97.2143 63.5308 98.4271 65.0007 98.4271C66.4705 98.4271 67.6674 97.2143 67.6674 95.7249V90.3204C67.6674 88.831 66.4705 87.6182 65.0007 87.6182Z" fill="#148948"/>
<path d="M75.3337 82.2134C73.8639 82.2134 72.667 83.4262 72.667 84.9156V101.129C72.667 102.619 73.8639 103.831 75.3337 103.831C76.8035 103.831 78.0004 102.619 78.0004 101.129V84.9156C78.0004 83.4262 76.8035 82.2134 75.3337 82.2134Z" fill="#148948"/>
<path d="M96.6686 66C95.1988 66 94.002 67.2128 94.002 68.7022V117.343C94.002 118.832 95.1988 120.045 96.6686 120.045C98.1385 120.045 99.3353 118.832 99.3353 117.343V68.7022C99.3353 67.2128 98.1385 66 96.6686 66Z" fill="#148948"/>
<path d="M85.9987 74.106C84.5289 74.106 83.332 75.3188 83.332 76.8082V109.235C83.332 110.725 84.5289 111.937 85.9987 111.937C87.4685 111.937 88.6654 110.725 88.6654 109.235V76.8082C88.6654 75.3188 87.4685 74.106 85.9987 74.106Z" fill="#148948"/>
</svg>
